HIERARCHY
ROOT Hips
{
	OFFSET 0.00000 0.00000 0.00000
	CHANNELS 6 Xposition Yposition Zposition Zrotation Yrotation Xrotation 
	JOINT LHipJoint
	{
		OFFSET 0 0 0
		CHANNELS 3 Zrotation Yrotation Xrotation
		JOINT LeftUpLeg
		{
			OFFSET 1.44361 -1.63093 0.70831
			CHANNELS 3 Zrotation Yrotation Xrotation
			JOINT LeftLeg
			{
				OFFSET 2.20103 -6.04728 0.00000
				CHANNELS 3 Zrotation Yrotation Xrotation
				JOINT LeftFoot
				{
					OFFSET 2.54154 -6.98283 0.00000
					CHANNELS 3 Zrotation Yrotation Xrotation
					JOINT LeftToeBase
					{
						OFFSET 0.05971 -0.16406 1.77582
						CHANNELS 3 Zrotation Yrotation Xrotation
						End Site
						{
							OFFSET 0.00000 -0.00000 0.90832
						}
					}
				}
			}
		}
	}
	JOINT RHipJoint
	{
		OFFSET 0 0 0
		CHANNELS 3 Zrotation Yrotation Xrotation
		JOINT RightUpLeg
		{
			OFFSET -1.65838 -1.63093 0.70830
			CHANNELS 3 Zrotation Yrotation Xrotation
			JOINT RightLeg
			{
				OFFSET -2.26926 -6.23475 0.00000
				CHANNELS 3 Zrotation Yrotation Xrotation
				JOINT RightFoot
				{
					OFFSET -2.34808 -6.45129 0.00000
					CHANNELS 3 Zrotation Yrotation Xrotation
					JOINT RightToeBase
					{
						OFFSET -0.18633 -0.51195 1.68539
						CHANNELS 3 Zrotation Yrotation Xrotation
						End Site
						{
							OFFSET -0.00000 -0.00000 0.88927
						}
					}
				}
			}
		}
	}
	JOINT LowerBack
	{
		OFFSET 0 0 0
		CHANNELS 3 Zrotation Yrotation Xrotation
		JOINT Spine
		{
			OFFSET -0.10393 2.01691 0.06920
			CHANNELS 3 Zrotation Yrotation Xrotation
			JOINT Spine1
			{
				OFFSET 0.04092 2.01302 -0.05283
				CHANNELS 3 Zrotation Yrotation Xrotation
				JOINT Neck
				{
					OFFSET 0 0 0
					CHANNELS 3 Zrotation Yrotation Xrotation
					JOINT Neck1
					{
						OFFSET -0.02870 1.58978 -0.03113
						CHANNELS 3 Zrotation Yrotation Xrotation
						JOINT Head
						{
							OFFSET 0.11532 1.54326 -0.29195
							CHANNELS 3 Zrotation Yrotation Xrotation
							End Site
							{
								OFFSET 0.04056 1.59999 -0.09535
							}
						}
					}
				}
				JOINT LeftShoulder
				{
					OFFSET 0 0 0
					CHANNELS 3 Zrotation Yrotation Xrotation
					JOINT LeftArm
					{
						OFFSET 3.30641 1.15764 0.01104
						CHANNELS 3 Zrotation Yrotation Xrotation
						JOINT LeftForeArm
						{
							OFFSET 4.63208 -0.00000 0.00000
							CHANNELS 3 Zrotation Yrotation Xrotation
							JOINT LeftHand
							{
								OFFSET 3.41924 -0.00000 -0.00000
								CHANNELS 3 Zrotation Yrotation Xrotation
								JOINT LeftFingerBase
								{
									OFFSET 0 0 0
									CHANNELS 3 Zrotation Yrotation Xrotation
									JOINT LeftHandIndex1
									{
										OFFSET 0.62537 -0.00000 -0.00000
										CHANNELS 3 Zrotation Yrotation Xrotation
										End Site
										{
											OFFSET 0.50419 -0.00000 -0.00000
										}
									}
								}
								JOINT LThumb
								{
									OFFSET 0 0 0
									CHANNELS 3 Zrotation Yrotation Xrotation
									End Site
									{
										OFFSET 0.51189 -0.00000 0.51189
									}
								}
							}
						}
					}
				}
				JOINT RightShoulder
				{
					OFFSET 0 0 0
					CHANNELS 3 Zrotation Yrotation Xrotation
					JOINT RightArm
					{
						OFFSET -3.78081 1.02180 -0.16609
						CHANNELS 3 Zrotation Yrotation Xrotation
						JOINT RightForeArm
						{
							OFFSET -4.40640 -0.00000 -0.00000
							CHANNELS 3 Zrotation Yrotation Xrotation
							JOINT RightHand
							{
								OFFSET -3.44675 -0.00000 0.00000
								CHANNELS 3 Zrotation Yrotation Xrotation
								JOINT RightFingerBase
								{
									OFFSET 0 0 0
									CHANNELS 3 Zrotation Yrotation Xrotation
									JOINT RightHandIndex1
									{
										OFFSET -0.51367 -0.00000 -0.00000
										CHANNELS 3 Zrotation Yrotation Xrotation
										End Site
										{
											OFFSET -0.41414 -0.00000 -0.00000
										}
									}
								}
								JOINT RThumb
								{
									OFFSET 0 0 0
									CHANNELS 3 Zrotation Yrotation Xrotation
									End Site
									{
										OFFSET -0.42046 -0.00000 0.42046
									}
								}
							}
						}
					}
				}
			}
		}
	}
}
MOTION
Frames: 13
Frame Time: .0083333
9.9666 16.5657 6.5646 0 0 0 0 0 0 -21 0 0 0 0 0 0 0 0 0 0 0 0 0 0 21 0 0 0 0 0 0 0 0 0 0 0 0 0 0 0 0 0 0 0 0 0 0 -16 0 0 21 0 0 11 0 0 0 -8 0 0 0 0 0 0 0 0 0 0 0 0 0 0 0 0 0 0 0 0 8 0 0 0 0 0 0 0 0 0 0 0 0 0 0 0 0 0
9.9666 16.5657 6.5646 -176.4100 -78.2782 -170.5030 0.0000 0.0000 0.0000 -11.2048 -14.5247 -3.4828 0.1110 2.1482 5.9154 0.6215 10.0341 -21.7353 2.3971 -9.6483 -27.8453 0.0000 0.0000 0.0000 9.4019 9.4809 -17.7790 -1.3590 -7.3791 20.8434 -0.5604 8.5366 -13.7412 -4.3666 12.6329 -38.0093 -10.7680 1.6389 -9.3317 4.8215 2.9643 -2.1405 11.6548 1.4247 2.1433 -2.8968 1.4133 -10.8499 2.7601 1.6957 19.4319 1.5439 0.7606 7.7191 0.0000 0.0000 0.0000 -89.5634 1.6286 22.3901 111.4783 -58.1831 -78.4872 -0.0000 0.0000 -0.0507 57.3948 -26.0828 -34.5029 -7.1250 0.0000 -0.0000 15.5051 -10.9364 -18.7965 0.0000 0.0000 0.0000 86.9107 -6.6795 22.9662 -120.0843 56.2874 -85.7290 0.0000 -0.0000 -3.3776 -20.2506 -23.7838 8.4627 7.1250 -0.0000 -0.0000 9.6294 -54.8832 -2.3536
9.9946 16.5616 6.5947 -177.0200 -77.8977 -169.9250 0.0000 0.0000 0.0000 -11.3869 -13.9838 -3.4681 0.0968 2.0060 5.5222 0.6265 9.8752 -21.6333 11.1933 -18.0284 -63.4076 0.0000 0.0000 0.0000 8.5999 10.3927 -18.7222 -1.6365 -8.0640 22.9087 -0.5783 10.0954 -14.3075 -3.9366 12.0755 -35.9997 -9.8299 2.0773 -9.2108 3.6650 3.4988 -2.1567 9.8408 1.7044 2.0553 -1.7435 1.0566 -10.7495 3.4861 0.7995 19.7292 1.5060 0.4777 7.8292 0.0000 0.0000 0.0000 -87.3762 1.9498 23.5504 111.0564 -58.2566 -78.1287 -0.0000 0.0000 -0.4272 58.2076 -25.8764 -35.1494 -7.1250 0.0000 -0.0000 15.9988 -11.2226 -19.5021 0.0000 0.0000 0.0000 89.5799 -6.6826 22.6796 -118.2733 56.7528 -84.2185 0.0000 -0.0000 -2.3677 -20.1998 -22.9802 8.1742 7.1250 -0.0000 -0.0000 9.3526 -54.0537 -2.0954
10.0165 16.5686 6.6139 -178.5400 -77.9314 -169.0720 0.0000 0.0000 0.0000 -11.9593 -13.6228 -2.6654 0.0805 1.8301 5.0364 0.6304 9.5980 -21.4116 11.5273 -18.1836 -64.4823 0.0000 0.0000 0.0000 7.7777 10.9723 -18.4603 -1.8694 -8.5886 24.5168 -0.8901 9.0633 -17.0499 -3.1136 10.8767 -31.8652 -9.0345 2.4970 -8.4067 2.4629 3.9669 -2.0767 8.0560 1.9573 1.7339 -0.7397 0.6371 -10.7917 4.2633 -0.2052 20.4160 1.5024 0.1386 8.0980 -0.0000 -0.0000 0.0000 -85.1440 2.3950 24.8533 110.1821 -58.4036 -77.3845 -0.0000 0.0000 -0.7165 58.9662 -25.7003 -35.7831 -7.1250 0.0000 -0.0000 16.4541 -11.5253 -20.1682 -0.0000 -0.0000 0.0000 92.3684 -6.8750 22.0364 -116.5578 57.1595 -82.7804 0.0000 -0.0000 -1.0102 -19.7610 -22.6385 7.8731 7.1250 -0.0000 -0.0000 9.6634 -53.6219 -2.0637
10.0323 16.5843 6.6236 -181.3660 -78.3709 -167.5910 0.0000 0.0000 0.0000 -12.9807 -13.3237 -1.1467 0.0662 1.6596 4.5659 0.5777 9.5554 -20.8588 11.6811 -18.2526 -64.9743 0.0000 0.0000 0.0000 6.9035 11.3522 -16.8398 -2.0230 -8.9139 25.5264 -1.3483 4.7694 -20.9023 -3.5186 11.4906 -33.9531 -8.3647 2.9038 -6.8925 1.1877 4.3750 -1.8709 6.2493 2.1819 1.1853 0.1824 0.1686 -11.0093 5.0953 -1.3383 21.4851 1.5190 -0.2500 8.5371 0.0000 0.0000 0.0000 -82.9016 2.8077 26.3828 108.6528 -58.6437 -76.0802 -0.0000 0.0000 -0.9346 59.4758 -25.2891 -35.9239 -7.1250 0.0000 -0.0000 16.8506 -11.3549 -20.6558 0.0000 0.0000 0.0000 95.1844 -7.2608 21.0576 -114.9129 57.5198 -81.3955 0.0000 0.0000 0.6299 -19.6891 -23.2543 8.0414 7.1250 -0.0000 -0.0000 9.9848 -54.2352 -2.2835
10.0529 16.6060 6.6221 -184.5480 -79.2002 -165.9420 0.0000 0.0000 0.0000 -13.8125 -12.6118 0.0929 0.0621 1.6078 4.4229 0.5531 8.8134 -19.9175 11.8664 -18.3336 -65.5648 0.0000 0.0000 0.0000 6.2293 10.5761 -14.7207 -2.0322 -8.9327 25.5852 -1.5636 0.8941 -23.3852 -3.3362 11.2204 -33.0270 -6.9021 2.5988 -5.0434 -0.2083 3.7721 -1.5219 3.8471 1.8803 0.8168 0.8706 0.0888 -11.4169 5.7927 -1.8974 22.5858 1.5891 -0.3831 9.0150 0.0000 -0.0000 0.0000 -80.7965 3.1859 25.9394 106.8201 -58.9035 -74.5130 -0.0000 0.0000 -1.5300 59.6047 -24.7876 -35.5548 -7.1250 0.0000 -0.0000 17.0729 -10.7896 -20.8200 0.0000 -0.0000 0.0000 97.8652 -7.4735 22.0999 -113.0823 57.8879 -79.8481 0.0000 0.0000 1.9620 -22.1053 -26.2100 10.1700 7.1250 -0.0000 -0.0000 8.7585 -57.7482 -2.7472
10.0457 16.5930 6.6232 -187.2220 -79.6875 -163.3930 0.0000 0.0000 0.0000 -14.2117 -12.2982 -0.0550 0.0620 1.6069 4.4204 0.5594 8.1408 -19.3734 11.9239 -18.3583 -65.7475 0.0000 0.0000 0.0000 5.3874 10.3314 -13.7322 -1.9196 -8.6967 24.8509 -1.4915 -3.4011 -24.5102 -3.3241 11.2021 -32.9646 -7.8709 0.5871 -5.4102 1.4015 1.1813 -1.0304 5.9710 0.5414 1.7766 -3.1503 1.2373 -13.0523 5.8577 0.4767 24.7602 2.6234 0.4083 9.9767 0.0000 0.0000 0.0000 -84.8638 3.9463 20.9709 105.1909 -59.1098 -73.1164 -0.0000 0.0000 -1.7779 59.6315 -24.1338 -34.9066 -7.1250 0.0000 -0.0000 17.2861 -9.9400 -20.8984 0.0000 0.0000 0.0000 94.2014 -7.3692 27.5165 -110.0308 58.4283 -77.2557 0.0000 0.0000 1.6392 -23.9507 -26.5336 11.2236 7.1250 -0.0000 -0.0000 6.8930 -58.4974 -2.2822
10.0317 16.5812 6.6201 -190.3430 -80.3615 -160.4290 0.0000 0.0000 0.0000 -14.6661 -12.3650 -0.1532 0.0675 1.6757 4.6102 0.5678 7.5385 -18.9365 11.9664 -18.3764 -65.8823 0.0000 0.0000 0.0000 4.5444 9.9453 -12.4137 -1.7030 -8.2179 23.3780 -1.0319 -5.7643 -22.0947 -1.8734 8.5973 -24.5436 -7.9054 0.4094 -5.6424 1.2397 0.9709 -0.9819 5.8119 0.4251 1.9935 -3.5603 0.9735 -13.3528 5.9672 0.0378 26.3128 2.7178 0.1533 10.6223 -0.0000 -0.0000 0.0000 -85.1210 3.9860 21.3648 102.7024 -59.3815 -70.9777 -0.0000 0.0000 -2.8436 59.4325 -23.1117 -33.6073 -7.1250 0.0000 -0.0000 17.4867 -8.4169 -20.7791 -0.0000 -0.0000 0.0000 94.4983 -8.2061 27.4299 -108.6296 58.6471 -76.0604 0.0000 0.0000 1.4588 -24.4566 -27.0039 11.6680 7.1250 -0.0000 -0.0000 6.5486 -59.1023 -2.2626
10.0128 16.5670 6.6047 -192.4740 -81.1164 -158.2990 0.0000 0.0000 0.0000 -14.7347 -12.5249 -0.4610 0.0777 1.7979 4.9473 0.5867 6.8623 -18.5754 12.0022 -18.3916 -65.9959 0.0000 0.0000 0.0000 4.0544 9.8702 -10.8882 -1.4173 -7.5291 21.2926 -0.5798 -7.5811 -19.1012 -2.3905 9.6360 -27.8059 -7.7112 0.3437 -6.0807 1.0698 0.9108 -0.9697 5.5264 0.3840 2.2675 -3.7270 0.6083 -13.3841 6.0416 -0.6016 27.5991 2.7206 -0.1766 11.1481 0.0000 -0.0000 0.0000 -85.3976 4.1876 21.9675 101.0872 -59.5304 -69.5867 -0.0000 0.0000 -4.3034 58.9693 -22.0874 -32.0072 -7.1250 0.0000 -0.0000 17.5414 -6.6849 -20.3916 0.0000 -0.0000 0.0000 94.8313 -9.2487 27.0268 -107.8446 58.7619 -75.3896 0.0000 0.0000 0.9234 -24.3249 -27.3315 11.7252 7.1250 -0.0000 -0.0000 6.8523 -59.4105 -2.4187
9.9885 16.5504 6.5761 -193.9540 -81.8393 -156.6500 0.0000 0.0000 0.0000 -14.5358 -12.6135 -0.9601 0.0897 1.9315 5.3165 0.6098 6.1385 -18.2539 12.0387 -18.4070 -66.1115 0.0000 0.0000 0.0000 3.8287 9.9219 -9.4128 -1.1391 -6.7780 19.0593 -0.4104 -7.8442 -17.4327 -2.9385 10.5948 -30.9250 -7.7523 0.2147 -6.7632 1.1945 0.7939 -0.9575 5.6842 0.3064 2.6778 -4.1759 0.3373 -13.5545 5.9895 -1.0041 29.0058 2.7593 -0.4437 11.7507 -0.0000 0.0000 0.0000 -86.2885 4.5939 22.2169 100.3579 -59.5907 -68.9579 -0.0000 0.0000 -6.1392 58.5229 -21.2367 -30.6095 -7.1250 0.0000 -0.0000 17.5491 -5.1960 -19.9900 -0.0000 0.0000 0.0000 94.6593 -10.3615 26.7749 -107.6181 58.7940 -75.1960 0.0000 -0.0000 -0.0714 -24.1015 -27.6775 11.7386 7.1250 -0.0000 -0.0000 7.2740 -59.7145 -2.6213
9.9661 16.5285 6.5378 -196.1770 -82.4185 -154.1930 0.0000 0.0000 0.0000 -14.4049 -12.7039 -1.5204 0.1028 2.0676 5.6924 0.6280 5.5236 -17.9938 12.0698 -18.4200 -66.2098 0.0000 0.0000 0.0000 3.5505 9.5262 -8.3047 -0.9228 -6.1203 17.1338 -0.4195 -7.4485 -17.1731 -3.6244 11.6431 -34.4810 -8.1946 0.0959 -7.5144 1.4578 0.7248 -0.9256 6.2228 0.2441 3.1335 -4.5043 0.0874 -13.7515 5.5892 -1.2800 30.2680 2.6563 -0.6831 12.3122 0.0000 0.0000 0.0000 -87.4980 5.0704 22.2827 100.2505 -59.5992 -68.8653 -0.0000 0.0000 -7.9324 58.4819 -20.6366 -29.8869 -7.1250 0.0000 -0.0000 17.6996 -4.3212 -19.9276 0.0000 0.0000 0.0000 94.2161 -11.3892 26.5627 -107.7250 58.7790 -75.2874 0.0000 -0.0000 -1.1421 -24.1476 -28.9958 12.2609 7.1250 -0.0000 -0.0000 7.9200 -61.0798 -3.1134
9.9530 16.5053 6.4887 -201.0980 -82.6029 -149.1700 0.0000 0.0000 0.0000 -14.7493 -12.7276 -1.9528 0.1170 2.2049 6.0724 0.6415 5.0422 -17.7999 12.1042 -18.4344 -66.3189 0.0000 0.0000 0.0000 2.8563 8.8705 -7.3273 -0.7512 -5.5359 15.4436 -0.4307 -7.3672 -17.2331 -4.2468 12.4818 -37.4585 -8.8781 0.0876 -8.0151 1.3754 0.8205 -0.8844 6.5450 0.2669 3.4329 -4.6674 -0.1301 -13.7991 5.4878 -1.6375 31.2799 2.6158 -0.9033 12.7614 -0.0000 0.0000 0.0000 -88.2510 5.5942 22.2698 100.4426 -59.5839 -69.0309 -0.0000 0.0000 -9.2127 58.6382 -20.2908 -29.6389 -7.1250 0.0000 -0.0000 17.8829 -3.9304 -20.0402 -0.0000 0.0000 0.0000 94.2114 -12.2900 26.3085 -107.9659 58.7446 -75.4934 0.0000 -0.0000 -2.0969 -25.5893 -28.9594 13.0547 7.1250 -0.0000 -0.0000 6.2286 -61.4051 -2.4932
9.9488 16.4856 6.4357 -206.9660 -82.4587 -143.4040 0.0000 0.0000 0.0000 -15.3774 -12.5615 -2.1790 0.1300 2.3240 6.4019 0.6483 4.5959 -17.5723 12.1548 -18.4553 -66.4787 0.0000 0.0000 0.0000 2.0419 8.4071 -6.0435 -0.5800 -4.8767 13.5572 -0.4480 -7.3431 -17.4173 -4.1040 12.2975 -36.7927 -9.5078 0.0786 -8.1648 1.0518 0.8934 -0.8167 6.5702 0.2860 3.5712 -4.7126 -0.2326 -13.6560 5.5144 -1.8937 32.0231 2.6101 -1.0473 13.0600 -0.0000 -0.0000 0.0000 -88.7130 6.0814 21.7617 100.4431 -59.5839 -69.0314 -0.0000 0.0000 -9.7260 58.8284 -20.3420 -29.8833 -7.1250 0.0000 -0.0000 17.9705 -4.1291 -20.2078 -0.0000 -0.0000 0.0000 94.3348 -12.9859 26.2971 -108.1356 58.7200 -75.6384 0.0000 -0.0000 -2.8330 -26.3529 -29.2046 13.5884 7.1250 -0.0000 -0.0000 5.4594 -61.8547 -2.2423
